<?xml version="1.0" encoding="utf-8"?>
<!-- Generator: Adobe Illustrator 21.0.2, SVG Export Plug-In . SVG Version: 6.00 Build 0)  -->
<svg version="1.1" id="레이어_1" xmlns="http://www.w3.org/2000/svg" xmlns:xlink="http://www.w3.org/1999/xlink" x="0px"
	 y="0px" viewBox="0 0 100 100" style="enable-background:new 0 0 100 100;" xml:space="preserve">
<style type="text/css">
	.st0{fill:#FFFFFF;}
</style>
<title>2Artboard 1</title>
<path class="st0" d="M89,29H11c-5,0-9,4-9,9v33c0,5,4,9,9,9h6v9c0,5,4,9,9,9h48c5,0,9-4,9-9v-9h6c5,0,9-4,9-9V38C98,33,94,29,89,29z
	 M71,86H29V65h42V86z M77,20H23v-9c0-5,4-9,9-9h36c5,0,9,4,9,9V20z"/>
</svg>
