<?xml version="1.0" encoding="utf-8"?>
<!-- Generator: Adobe Illustrator 21.0.2, SVG Export Plug-In . SVG Version: 6.00 Build 0)  -->
<svg version="1.1" id="레이어_1" xmlns="http://www.w3.org/2000/svg" xmlns:xlink="http://www.w3.org/1999/xlink" x="0px"
	 y="0px" viewBox="0 0 20 20" style="enable-background:new 0 0 20 20;" xml:space="preserve">
<style type="text/css">
	.st0{fill:#FFFFFF;}
</style>
<g>
	<path class="st0" d="M19,0H1C0.4,0,0,0.4,0,1v3.8C0,4.9,0.1,5,0.2,5h19.6C19.9,5,20,4.9,20,4.8V1C20,0.4,19.6,0,19,0z"/>
	<path class="st0" d="M19.8,7H7.2C7.1,7,7,7.1,7,7.2v12.6C7,19.9,7.1,20,7.2,20H19c0.6,0,1-0.4,1-1V7.2C20,7.1,19.9,7,19.8,7z"/>
	<path class="st0" d="M4.8,7H0.2C0.1,7,0,7.1,0,7.2V19c0,0.6,0.4,1,1,1h3.8C4.9,20,5,19.9,5,19.8V7.2C5,7.1,4.9,7,4.8,7z"/>
</g>
</svg>
