<?xml version="1.0" encoding="utf-8"?>
<!-- Generator: Adobe Illustrator 21.0.2, SVG Export Plug-In . SVG Version: 6.00 Build 0)  -->
<svg version="1.1" id="레이어_1" xmlns="http://www.w3.org/2000/svg" xmlns:xlink="http://www.w3.org/1999/xlink" x="0px"
	 y="0px" viewBox="0 0 100 100" style="enable-background:new 0 0 100 100;" xml:space="preserve">
<style type="text/css">
	.st0{fill:#FFFFFF;}
</style>
<path class="st0" d="M45.6,18.9c0,2.9,0,5.8,0,8.6c0,2.7,1.9,4.6,4.4,4.6s4.4-1.8,4.4-4.6c0-5.8,0-11.7,0-17.5
	c0-2.7-1.9-4.6-4.4-4.6c-2.6,0-4.4,1.8-4.4,4.5C45.5,13,45.6,16,45.6,18.9z"/>
<path class="st0" d="M18.8,54.4c2.9,0,5.8,0,8.6,0c2.9,0,4.8-1.9,4.8-4.5c0-2.5-1.9-4.3-4.6-4.4c-5.8,0-11.5,0-17.3,0
	c-2.9,0-4.8,1.8-4.7,4.5c0,2.6,1.9,4.3,4.9,4.4C13.2,54.5,16,54.4,18.8,54.4z"/>
<path class="st0" d="M81.2,45.6c-2.9,0-5.8,0-8.6,0c-2.9,0-4.8,1.9-4.7,4.5c0.1,2.5,1.9,4.3,4.7,4.3c5.8,0,11.5,0,17.3,0
	c2.9,0,4.8-1.9,4.7-4.5c-0.1-2.5-1.9-4.3-4.7-4.3C86.9,45.5,84,45.6,81.2,45.6z"/>
<path class="st0" d="M31.1,75.2c2-2,4.1-4.1,6.1-6.1c2-2.1,2.1-4.7,0.2-6.5c-1.8-1.8-4.4-1.7-6.4,0.2c-4.1,4-8.2,8.1-12.2,12.2
	c-2,2.1-2.1,4.7-0.2,6.5s4.4,1.7,6.5-0.4C27.1,79.2,29.1,77.2,31.1,75.2z"/>
<path class="st0" d="M74.9,68.9c-2-2-4.1-4.1-6.1-6.1c-2.1-2-4.7-2-6.5-0.1c-1.8,1.8-1.7,4.4,0.3,6.4c4,4.1,8.1,8.2,12.2,12.2
	c2.1,2,4.7,2,6.5,0.1C83,79.5,83,77,81,75C79,72.9,77,70.9,74.9,68.9z"/>
<path class="st0" d="M31,24.8c-2-2-4.1-4.1-6.1-6.1c-2.1-2-4.7-2-6.5-0.1c-1.8,1.8-1.7,4.4,0.3,6.4c4,4.1,8.1,8.2,12.2,12.2
	c2.1,2,4.7,2,6.5,0.1c1.8-1.8,1.7-4.4-0.3-6.4S33.1,26.9,31,24.8z"/>
<path class="st0" d="M54.4,81.2c0-2.9,0-5.8,0-8.6c0-2.9-1.9-4.8-4.5-4.7c-2.5,0.1-4.3,1.9-4.3,4.7c0,5.8,0,11.5,0,17.3
	c0,2.8,1.8,4.6,4.3,4.7c2.7,0.1,4.5-1.8,4.6-4.7C54.5,86.9,54.4,84,54.4,81.2z"/>
</svg>
