<?xml version="1.0" encoding="utf-8"?>
<!-- Generator: Adobe Illustrator 21.0.2, SVG Export Plug-In . SVG Version: 6.00 Build 0)  -->
<svg version="1.1" id="레이어_1" xmlns="http://www.w3.org/2000/svg" xmlns:xlink="http://www.w3.org/1999/xlink" x="0px"
	 y="0px" viewBox="0 0 100 100" style="enable-background:new 0 0 100 100;" xml:space="preserve">
<style type="text/css">
	.st0{fill:#FFFFFF;}
</style>
<g>
	<g>
		<path class="st0" d="M25.1,31.4H9.7c-2.6,0-4.7,2.1-4.7,4.7v51.5c0,2.6,2.1,4.7,4.7,4.7h15.4c2.6,0,4.7-2.1,4.7-4.7V36.1
			C29.8,33.5,27.7,31.4,25.1,31.4z"/>
		<path class="st0" d="M88.8,35.9H87H56.4l2.3-4.2c1.8-3.2,3.1-6.6,4.1-10.1l0.6-2.4c1.1-4-0.7-8.3-4.4-10.3l-1.5-0.8
			c-1.3-0.7-3-0.2-3.7,1.1c-4.7,9.2-11.1,17.4-18.7,24.3l-2.6,2.3v51.9h8.3h38.4h2c3.1,0,5.7-2.5,5.7-5.7v-1.6
			c0-3.1-2.5-5.7-5.7-5.7h3.6c3.3,0,5.9-2.6,5.9-5.9v-1.1c0-3.3-2.6-5.9-5.9-5.9h1.8c3.3,0,6-2.7,6-6v-0.9c0-3.3-2.7-6-6-6h2.2
			c3.4,0,6.2-2.8,6.2-6.2V42C95,38.6,92.2,35.9,88.8,35.9z"/>
	</g>
</g>
</svg>
